<svg xmlns="http://www.w3.org/2000/svg" width="364" height="599.415" viewBox="0 0 464 699.415">
  <g id="undraw_contract_re_ves9" transform="translate(0.039)">
    <path id="Path_2" data-name="Path 2" d="M728.944,647.625c-.354.4-.709.811-1.052,1.223a134.549,134.549,0,0,0-12.937,17.76c-.309.48-.606.971-.88,1.451a142.423,142.423,0,0,0-18.16,49.19q-.994,5.9-1.5,11.863-.36,4.594-.434,9.2c-.183,12.892.96,27.235-7.349,37.087a25.931,25.931,0,0,1-7.977,6.263,33.346,33.346,0,0,1-7.223,2.731H645.525c-1.3-.194-2.606-.4-3.909-.606-.034,0-.069-.011-.1-.011l-.263.091-1.566.526-.069.023v-.023a.556.556,0,0,0-.011-.137,1.841,1.841,0,0,0-.011-.251v-.011c-.011-.229-.023-.446-.023-.674l-.034-.606s-.011-.011,0-.011c-.011-.343-.034-.686-.046-1.04-1.2-29.829,1.726-60.653,15.806-86.917a97.11,97.11,0,0,1,18.423-24.241,1.406,1.406,0,0,1,.137-.125c14.64-13.966,33.567-23.1,53.544-22.789Q728.173,647.591,728.944,647.625Z" transform="translate(-362.232 -85.003)" fill="#136f63"/>
    <path id="Path_3" data-name="Path 3" d="M728.974,648.353a121,121,0,0,0-52.565,52.716,52.1,52.1,0,0,0-5.317,15.436,29.885,29.885,0,0,0,1.948,15.607c1.8,4.64,4.182,9.177,4.824,14.174a18.3,18.3,0,0,1-4.54,14.26c-4.158,4.9-9.83,8.018-15.483,10.872-6.276,3.169-12.845,6.361-17.2,12.09-.528.694-1.574-.166-1.047-.859,7.581-9.968,20.933-12.142,30.026-20.247,4.243-3.782,7.372-8.865,7.019-14.72-.309-5.12-2.759-9.8-4.624-14.483a31.888,31.888,0,0,1-2.474-15.19,48.17,48.17,0,0,1,4.7-15.583,117.391,117.391,0,0,1,20.833-30.2A123.146,123.146,0,0,1,728.5,647.083c.773-.4,1.239.876.471,1.27Z" transform="translate(-362.203 -85.085)" fill="#fff"/>
    <path id="Path_4" data-name="Path 4" d="M675.642,690.623a18.153,18.153,0,0,1-6.052-22.715c.377-.786,1.615-.237,1.238.55a16.81,16.81,0,0,0,5.673,21.118C677.219,690.069,676.356,691.113,675.642,690.623Z" transform="translate(-358.148 -82.153)" fill="#fff"/>
    <path id="Path_5" data-name="Path 5" d="M667.844,721.2a34.989,34.989,0,0,0,21.828-13.181c.53-.692,1.577.167,1.047.859a36.394,36.394,0,0,1-22.742,13.67c-.861.145-.989-1.2-.133-1.348Z" transform="translate(-358.229 -76.404)" fill="#fff"/>
    <path id="Path_6" data-name="Path 6" d="M697.3,661.587a10.276,10.276,0,0,0,9.264,3.042c.859-.156.986,1.192.133,1.348a11.515,11.515,0,0,1-10.256-3.343.7.7,0,0,1-.094-.953.681.681,0,0,1,.953-.094Z" transform="translate(-354.093 -83.024)" fill="#fff"/>
    <path id="Path_7" data-name="Path 7" d="M792.033,721.933c-.526.114-1.051.229-1.589.354h-.011a136.108,136.108,0,0,0-21.006,6.378c-.526.206-1.052.411-1.577.628h-.011A142.593,142.593,0,0,0,723.905,757.5c-.046.046-.091.08-.137.126a.686.686,0,0,1-.092.091l-.057.057a139.067,139.067,0,0,0-14.069,15.5c0,.011-.011.023-.023.034-.686.892-1.383,1.783-2.069,2.7H639.674l-.069.023V776h-.286c0-.011.011-.023.023-.034s.011-.011.011-.023c.08-.114.16-.229.229-.331V775.6a.317.317,0,0,1,.069-.092c.069-.114.149-.206.206-.308.457-.64.9-1.292,1.36-1.931.743-1.063,1.5-2.126,2.263-3.177a.011.011,0,0,1,0-.008.011.011,0,0,1,.008,0v-.011c.011-.011.011-.023.023-.034l.023-.023c9.429-13.052,20.035-25.441,32.184-35.818.366-.32.731-.64,1.12-.937a131.223,131.223,0,0,1,17.566-12.538q5.074-3,10.458-5.509a97.286,97.286,0,0,1,29.247-8.252h.023c.023,0,.046-.011.08-.011s.057-.011.08-.011c20.126-2.331,40.755,1.771,56.539,14.046C791.244,721.3,791.633,721.613,792.033,721.933Z" transform="translate(-362.221 -76.611)" fill="#136f63"/>
    <path id="Path_8" data-name="Path 8" d="M639.327,767.43h.286v.023l.069-.023h18.138c-5.406-.926-10.8-1.646-16.206-.606-.126.023-.24.046-.366.08-.549.1-1.1.24-1.646.389-.034.011-.08.023-.114.034a.384.384,0,0,0-.137.068.171.171,0,0,0-.08.034Z" transform="translate(-362.228 -68.038)" fill="#fff"/>
    <path id="Path_9" data-name="Path 9" d="M786.22,720.858c-.423-.069-.834-.149-1.257-.206h-.011a120.482,120.482,0,0,0-26.686-1.349c-.446.023-.9.057-1.36.08a120.374,120.374,0,0,0-36.081,8.217c-.011,0-.011,0-.011.011-.126.046-.251.091-.366.137-2.686,1.086-5.337,2.274-7.932,3.554a52.236,52.236,0,0,0-13.543,9.12,29.119,29.119,0,0,0-7.1,11.3c-.149.434-.3.857-.434,1.291-.1.343-.206.7-.309,1.04-1.349,4.789-2.183,9.84-4.674,14.218a16.742,16.742,0,0,1-2.514,3.36,17.285,17.285,0,0,1-3.383,2.732h-2.88a16.606,16.606,0,0,0,4.332-2.731,14.334,14.334,0,0,0,2.617-2.983c2.834-4.274,3.7-9.486,5.029-14.343.217-.789.446-1.554.7-2.32a30.456,30.456,0,0,1,6.48-11.3,48.2,48.2,0,0,1,13.132-9.612q4.629-2.434,9.509-4.411c.423-.183.846-.343,1.269-.5a123.523,123.523,0,0,1,64.608-6.812c.423.057.834.137,1.257.206C787.466,719.7,787.078,721.007,786.22,720.858Z" transform="translate(-356.74 -74.976)" fill="#fff"/>
    <path id="Path_10" data-name="Path 10" d="M714.529,728.82a18.153,18.153,0,0,1,8.844-21.78c.774-.4,1.432.783.657,1.184a16.81,16.81,0,0,0-8.185,20.277c.277.826-1.041,1.14-1.316.319Z" transform="translate(-351.605 -76.519)" fill="#fff"/>
    <path id="Path_11" data-name="Path 11" d="M689.9,747.324a34.989,34.989,0,0,0,25.365,2.618c.84-.233,1.158,1.083.319,1.316a36.394,36.394,0,0,1-26.389-2.778C688.424,748.078,689.133,746.924,689.9,747.324Z" transform="translate(-355.142 -70.763)" fill="#fff"/>
    <path id="Path_12" data-name="Path 12" d="M748.3,718.808a10.276,10.276,0,0,0,5.565,8.006c.78.392.07,1.546-.705,1.156a11.515,11.515,0,0,1-6.176-8.844.7.7,0,0,1,.5-.818.681.681,0,0,1,.818.5Z" transform="translate(-346.839 -74.899)" fill="#fff"/>
    <path id="Path_13" data-name="Path 13" d="M759.252,345.391q.463-56.762,4.617-114.621c.046-.766.1-1.52.16-2.286q2.194-30.121,5.372-60.459v-.114a12.579,12.579,0,0,0-12.572-12.572H419.676A12.6,12.6,0,0,0,407.1,167.855q-4.389,41.778-6.88,83.145c-.069.9-.114,1.794-.16,2.7q-1.234,20.452-1.966,40.8c-.034.8-.069,1.6-.08,2.4A1690.185,1690.185,0,0,0,407.1,546.277a12.594,12.594,0,0,0,12.572,12.5H756.829A12.579,12.579,0,0,0,769.4,546.209v-.126q-2.486-22.063-4.366-44.413-.274-3.274-.537-6.549-1.3-16.1-2.274-32.321-.206-3.274-.377-6.549-1.834-32.47-2.4-65.442c-.046-2.183-.08-4.354-.114-6.549q-.206-16.1-.126-32.321C759.206,349.757,759.217,347.574,759.252,345.391Z" transform="translate(-396.871 -155.34)" fill="#e0ca3c"/>
    <path id="Path_14" data-name="Path 14" d="M849.4,231.912a12.579,12.579,0,0,0-12.572-12.572H499.671A12.6,12.6,0,0,0,487.1,231.855c-11.383,108.54-13.269,215.161-5.646,317.781q1.389,19.046,3.246,37.9.994,10.1,2.114,20.138c.091.869.183,1.737.286,2.606a12.594,12.594,0,0,0,12.572,12.5H836.824A12.579,12.579,0,0,0,849.4,610.209v-.126c-13.635-120.884-13.635-248.076,0-378.057Z" transform="translate(-385.434 -146.195)" fill="#5c7aff"/>
    <path id="Path_15" data-name="Path 15" d="M849.4,231.912a12.579,12.579,0,0,0-12.572-12.572H499.671A12.6,12.6,0,0,0,487.1,231.855c-11.383,108.54-13.269,215.161-5.646,317.781q1.389,19.046,3.246,37.9.994,10.1,2.114,20.138c.091.869.183,1.737.286,2.606a12.594,12.594,0,0,0,12.572,12.5H836.824A12.579,12.579,0,0,0,849.4,610.209v-.126c-13.635-120.884-13.635-248.076,0-378.057ZM847.11,610.277a10.3,10.3,0,0,1-10.286,10.217H499.671a10.3,10.3,0,0,1-10.286-10.286v-.126c-.08-.732-.16-1.474-.24-2.206q-1.183-10.492-2.206-21.041-1.8-18.5-3.189-37.2c-7.623-102.563-5.749-209.115,5.634-317.609v-.114a10.3,10.3,0,0,1,10.286-10.286H836.824a10.29,10.29,0,0,1,10.286,10.229C833.475,361.938,833.475,489.268,847.11,610.277Z" transform="translate(-385.434 -146.195)" fill="#e4e4e4"/>
    <path id="Path_142" data-name="Path 142" d="M517.563,321.63a3.276,3.276,0,0,0,0,6.552H791.55a3.276,3.276,0,0,0,0-6.552Z" transform="translate(-380.087 -131.579)" fill="#e6e6e6"/>
    <path id="Path_143" data-name="Path 143" d="M517.563,338.83a3.276,3.276,0,0,0,0,6.552h186a3.276,3.276,0,0,0,0-6.552Z" transform="translate(-380.087 -129.121)" fill="#e6e6e6"/>
    <path id="Path_142-2" data-name="Path 142" d="M517.563,355.641a3.276,3.276,0,0,0,0,6.552H791.55a3.276,3.276,0,0,0,0-6.552Z" transform="translate(-380.087 -126.719)" fill="#e6e6e6"/>
    <path id="Path_143-2" data-name="Path 143" d="M517.563,372.84a3.276,3.276,0,0,0,0,6.552h186a3.276,3.276,0,0,0,0-6.552Z" transform="translate(-380.087 -124.261)" fill="#e6e6e6"/>
    <path id="Path_142-3" data-name="Path 142" d="M517.563,418.63a3.276,3.276,0,0,0,0,6.552H791.55a3.276,3.276,0,0,0,0-6.552Z" transform="translate(-380.087 -117.718)" fill="#e6e6e6"/>
    <path id="Path_143-3" data-name="Path 143" d="M517.563,435.83a3.276,3.276,0,0,0,0,6.552h186a3.276,3.276,0,0,0,0-6.552Z" transform="translate(-380.087 -115.261)" fill="#e6e6e6"/>
    <path id="Path_142-4" data-name="Path 142" d="M517.563,452.641a3.276,3.276,0,0,0,0,6.552H791.55a3.276,3.276,0,0,0,0-6.552Z" transform="translate(-380.087 -112.858)" fill="#e6e6e6"/>
    <path id="Path_143-4" data-name="Path 143" d="M517.563,469.84a3.276,3.276,0,1,0,0,6.552h186a3.276,3.276,0,0,0,0-6.552Z" transform="translate(-380.087 -110.401)" fill="#e6e6e6"/>
    <path id="Path_154" data-name="Path 154" d="M571.45,287.728H519.12a2.559,2.559,0,0,1-2.557-2.557v-8.384a2.559,2.559,0,0,1,2.557-2.556H571.45a2.559,2.559,0,0,1,2.557,2.556v8.384A2.56,2.56,0,0,1,571.45,287.728Z" transform="translate(-379.762 -138.352)" fill="#e0ca3c"/>
    <path id="Path_17" data-name="Path 17" d="M289.084,592.6l-11.24,3.7-19.633-41.59,16.589-5.465Z" transform="translate(36.902 78.482)" fill="#9f616a"/>
    <path id="Path_18" data-name="Path 18" d="M694.417,752.355l-.766-2.32-2.011-6.114-1.371-4.16-3.749,1.234-.777-.057-10.3-.7-1.371-.091-2.034-.137-2.1-.149-5.874,8.537h-.011a17.437,17.437,0,0,0-10.195,8.777c-.126.251-.24.5-.354.754a14.69,14.69,0,0,0-.72,1.9,17.387,17.387,0,0,0-.48,8.663,19.873,19.873,0,0,0,.56,2.114l.034.114.137.423.823-.274,7.223-2.377,25.3-8.332L691.4,758.5l1.543-.514h.011l2.994-.983Z" transform="translate(-360.414 -71.832)" fill="#000f08"/>
    <path id="Path_19" data-name="Path 19" d="M194.187,601.438H182.354l-5.63-45.645H194.19Z" transform="translate(25.258 79.418)" fill="#9f616a"/>
    <path id="Path_20" data-name="Path 20" d="M573.492,577.747l-5.246,9.075s-5.764,1.574-3.88,20.365c1.33,13.268,1.762,72.676,5.111,111.271,1.394,16.063,3.293,28.52,5.973,32.546l1.65,1.478,17.22,1.646.434-.152,6.323-44.66a75.039,75.039,0,0,0-.5-24.127h0l-1.143-12.572,15.855-63.656s16.146,40.8,26.432,79.656c2.476,9.354,11.881,15.3,15.447,23.33,1.195,2.689,2.369,5.3,3.514,7.8,7.542,16.465,11.322,28.451,14.183,29.448h2.286l13.715-4.572,2.7-6.783-20.984-61.79-15.714-99.768C626.923,560.177,598.836,558.386,573.492,577.747Z" transform="translate(-372.986 -96.987)" fill="#3e2f5b"/>
    <path id="Path_21" data-name="Path 21" d="M659.05,462.567a46.618,46.618,0,0,0-3.634-6.549,33.668,33.668,0,0,0-12.766-11.669l-4.5-.994-8.069-1.783-4.252-4.766L618.854,429h-24l-3.212,7.806-2.7,6.549-1.154,2.789-20.549,10.275c-.011,0-.011,0-.023.011q.411,3.086.811,6.137.874,6.634,1.646,13.109.394,3.292.754,6.549,1.149,10.217,1.977,20.081.737,8.812,1.177,17.372a381.826,381.826,0,0,1,.16,38.915c-.16,3.052,2.869,6.526,2.629,9.509-.4,4.869-4.16,9.189-4.823,13.841-.411,2.857-.229,5.9-.949,8.595a9.611,9.611,0,0,1-.891,2.263c0,.011-.011.011-.011.023-8.229,14.7-1.771,7.68-2.537,10.983l.366.091c.172.046.7.183,1.543.377,4.834,1.154,24.766-17.555,38.15-17.555,8.035,0,29.3,13.212,36.424,14.172,5.634.754,10.663,1.44,13.658-1.2a7,7,0,0,0,1.932-2.834l.034-.1-.011-.1-.286-3.829-.171-2.286-2.446-32.8a11.629,11.629,0,0,1-1.486-12.217l.5-1.063-1.851-24.778-.343-4.629-.126-1.566v-.011l-.891-11.966,2.149-6.537v-.011l4.183-12.732,2.149-6.549,1.349-4.114.091-.274a46.78,46.78,0,0,0-3.029-8.72Z" transform="translate(-372.774 -116.236)" fill="#f34213"/>
    <path id="Path_22" data-name="Path 22" d="M669.813,573.364l-23.041-59.546-10.7-21.744,20.578-11.368,16.573,29.2,11.109,61.009a10.618,10.618,0,1,1-14.518,2.449Z" transform="translate(-362.686 -108.848)" fill="#9f616a"/>
    <path id="Path_23" data-name="Path 23" d="M671.71,495.131l-5.9-3.817-6.777-12.675-3.5-6.549-2.206-4.114-.937-1.76L641.8,458.982l-7.155-4.892-5.829,4.892-2.777,2.332,2.72,10.777,1.646,6.549,3.589,14.206,10.526,18.618,2.617,4.629,1.5,2.663.012.023.206.354,26.6-1.109.834-.034.046-1.9.023-.686c.011-.343.011-.686.011-1.029a42.233,42.233,0,0,0-4.651-19.246Z" transform="translate(-364.119 -112.651)" fill="#f34213"/>
    <path id="Path_24" data-name="Path 24" d="M491.552,548.677l47.134-43.07,16.381-17.859L573.125,502.8l-21.2,26.036L499.1,561.318a10.618,10.618,0,1,1-7.549-12.641Z" transform="translate(-385.252 -107.842)" fill="#9f616a"/>
    <path id="Path_25" data-name="Path 25" d="M581.41,478.864l-.091-6.549-.171-13.109-.069-5.086-.194-.137a8.589,8.589,0,0,0-3.531-1.326,10.237,10.237,0,0,0-3.349,0,11.964,11.964,0,0,0-1.726.4c-.012,0-.012,0-.023.011a19.77,19.77,0,0,0-8.652,6.126l-.011.012a85.351,85.351,0,0,0-9.074,13.109c-1.292,2.194-2.526,4.412-3.68,6.549-4.366,8.126-7.509,15.166-7.566,15.292L530.22,511.1l.183.309,2.869,4.9,10.515,17.978,1.669,2.857,4.263-2.274a24.786,24.786,0,0,0,11.109-12.092l1.52-5.806.56-.663,14.538-17.372,4.16-4.983Z" transform="translate(-377.811 -112.876)" fill="#f34213"/>
    <circle id="Ellipse_1" data-name="Ellipse 1" cx="22.001" cy="22.001" r="22.001" transform="translate(206.452 305.063) rotate(-80.783)" fill="#9f616a"/>
    <path id="Path_26" data-name="Path 26" d="M581.262,396.041c-.978-3.422-2.934-6.356-1.956-6.356s1.467-2.445,1.467-2.445.978-.489,1.467,0,.978-3.422.978-3.422.489-1.467.978-.489.489.489.978-.978,2.934-2.445,2.934-2.445,9.29.489,10.756-1.467,18.09-.489,21.513,1.956,16.906,6.814,8.906,20.529c4.571,8-2.253,22.269-4.017,23.962-2.789,2.677-4.719,3.642-17.914,6.268-2.582.514-8.927-21.087-8.927-21.087S582.239,399.463,581.262,396.041Z" transform="translate(-370.835 -123.591)" fill="#000f08"/>
    <path id="Path_27" data-name="Path 27" d="M594.656,750.293l-.709-.286-12.732-5.189-1.954-.789-8.252,6.263H571a17.6,17.6,0,0,0-17.578,17.589v.571H598.6V750.293Z" transform="translate(-374.496 -71.222)" fill="#000f08"/>
    <path id="Path_28" data-name="Path 28" d="M735.081,766.26a1.366,1.366,0,0,1-1.36,1.371H501.371a1.366,1.366,0,0,1,0-2.732H733.72a1.363,1.363,0,0,1,1.36,1.36Z" transform="translate(-382.128 -68.239)" fill="#000f08"/>
    <path id="Path_29" data-name="Path 29" d="M509.793,155.34A153.461,153.461,0,0,1,397.95,294.5c-.034.8-.069,1.6-.08,2.4A155.763,155.763,0,0,0,512.079,155.34Z" transform="translate(-396.722 -155.34)" fill="#fff"/>
    <path id="Path_30" data-name="Path 30" d="M474.531,155.34A153.777,153.777,0,0,1,399.82,251c-.069.9-.114,1.794-.16,2.7A156.145,156.145,0,0,0,476.9,155.34Z" transform="translate(-396.466 -155.34)" fill="#fff"/>
  </g>
</svg>
