<svg xmlns="http://www.w3.org/2000/svg" width="358" height="358" viewBox="0 0 358 358">
  <g id="Group_14" data-name="Group 14" transform="translate(-245 -3418)">
    <circle id="Ellipse_2" data-name="Ellipse 2" cx="179" cy="179" r="179" transform="translate(245 3418)" fill="#515151"/>
    <path id="Icon_ionic-ios-person" data-name="Icon ionic-ios-person" d="M246.627,240.639c-4.542-20.062-30.472-29.841-39.43-33-9.842-3.47-23.847-4.29-32.869-6.309-5.173-1.136-12.681-3.975-15.2-7s-1.009-31.1-1.009-31.1a93.577,93.577,0,0,0,7.192-13.69c2.524-6.372,5.3-23.91,5.3-23.91s5.173,0,7-9.085c1.956-9.9,5.047-13.753,4.669-21.135-.379-7.255-4.353-7.066-4.353-7.066s3.848-10.536,4.29-32.364c.568-25.929-19.747-51.48-56.527-51.48C88.4,4.5,68.529,30.051,69.1,55.98c.5,21.829,4.227,32.364,4.227,32.364s-3.975-.189-4.353,7.066c-.379,7.381,2.713,11.23,4.669,21.135,1.766,9.085,7,9.085,7,9.085s2.776,17.539,5.3,23.91a93.576,93.576,0,0,0,7.192,13.69s1.514,28.074-1.009,31.1-10.031,5.867-15.2,7c-9.022,2.019-23.027,2.839-32.869,6.309-8.959,3.154-34.888,12.933-39.43,33a5.043,5.043,0,0,0,4.984,6.12h232.1A5.033,5.033,0,0,0,246.627,240.639Z" transform="translate(298.376 3471.371)" fill="#efefef"/>
  </g>
</svg>
