<svg xmlns="http://www.w3.org/2000/svg" width="794.598" height="901.392" viewBox="0 0 794.598 901.392">
  <g id="Group_16" data-name="Group 16" transform="translate(75 2264.392)">
    <g id="Group_15" data-name="Group 15" transform="translate(-1421.824 1458)">
      <path id="Path_34" data-name="Path 34" d="M1717.628-3409.171s38.647-113.065-151.831-122.75c-71.026,48.427-119.453,77.483-96.853,248.59-71.026,25.828-93.625,48.427-119.453,132.366s138.823,206.621,368.043,80.711c22.365-17.393,63.232-57.391,63.232-57.391l-20,75.648s-4.348,38.259,46.954,28.694,144.339-95.646,144.339-95.646l-13.912-16.521-62.6,45.215s-47.823,25.216-35.65-28.694,104.342-445.192,104.342-445.192,13.043-106.95,71.3-99.125,96.516,8.7,96.516,8.7,66.083-31.3,0-67.822c-58.258,5.217-13.912-16.521-147.818,47.823-19.129,13.912-93.038,64.344-118.254,231.291-25.216-3.478-68.692-5.217-113.037,23.477s-50.431,37.388-50.431,37.388-75.648-74.778-151.3-75.648c-10.434,34.781-48.693,126.08,85.212,161.73,3.478-10.434,54.779-78.256,57.388-78.256,1.549-1.434,7.169-7.826,7.169-7.826" fill="#f34213"/>
      <path id="Path_35" data-name="Path 35" d="M1579.842-3227.908s-32.774,90.295-26.085,117.719c-20.734,1.337-133.771-13.378-113.706-88.958,2.675-10.033,19.4-64.21,34.112-67.555,10.033,7.357,80.263,41.469,101,38.794S1579.842-3227.908,1579.842-3227.908Z" fill="#fff"/>
      <path id="Path_36" data-name="Path 36" d="M1769.464-3158.081c-24.346,9.565-88.691,66.083-133.905,51.3-20-20-1.739-274.767,144.339-292.157,26.086,1.739,54.78,9.565,54.78,9.565S1793.811-3167.645,1769.464-3158.081Z" fill="#fff"/>
      <path id="Path_37" data-name="Path 37" d="M1628.851-3298.216l50.809-84.436s-111.754-86.92-146.522-74.5-27.318,94.37-12.417,101.82S1628.851-3298.216,1628.851-3298.216Z" fill="#efefef"/>
    </g>
    <text id="Edusopher" transform="translate(2 -1413)" fill="#000f08" font-size="165" font-family="MonotypeCorsiva, Monotype Corsiva"><tspan x="0" y="0">Edusopher</tspan></text>
  </g>
</svg>
